<svg xmlns="http://www.w3.org/2000/svg" fill="none" version="1.0" viewBox="8 14 64 40"><path fill="#2f80ed" d="M29 9.5c-1.6.8-5.9 7.3-11.4 17-9.9 17.3-10.7 20.3-6.1 24.2C14.1 53 14.6 53 40.9 53c26.5 0 26.8 0 28.8-2.2 4-4.5 3.8-6.2-1.9-16.5-4.1-7.5-6-9.9-8.5-10.9-3.3-1.4-7.4-.7-8.8 1.5-1.2 2.1-2.4 1-6.8-6.7C38.1 8.5 34.5 6.4 29 9.5m10.7 15.1 5.1 8.9-2.4 4.2a18.5 18.5 0 0 0-2.4 6.2c0 2-.5 2.1-12.5 2.1-7.8 0-12.5-.4-12.5-1 0-1 14.3-26.2 16.3-28.8 1.7-2.2 3-.9 8.4 8.4M61.8 37c2.3 4 4 8 3.8 8.7-.4 1-1.8 1.3-4.3 1.1-3.1-.3-3.7-.7-4-3.1-.2-1.5-1.3-4.3-2.5-6.3-1.7-2.9-1.9-3.9-.9-6 .6-1.4 1.7-2.4 2.3-2.2.7.3 3.2 3.7 5.6 7.8M51 44.6c0 .8-1 1.4-2.5 1.4-2.8 0-2.9-.3-1.4-3.1.8-1.6 1.3-1.8 2.5-.8.8.6 1.4 1.8 1.4 2.5"/></svg>