<svg xmlns="http://www.w3.org/2000/svg" width="800" height="800" fill="none" viewBox="0 0 20 20"><path fill="#000" fill-rule="evenodd" d="M11.2 1.65a2 2 0 0 0-2.4 0L1.885 6.836a2.02 2.02 0 0 0-.783 1.907c.145.99.398 2.92.398 4.257 0 1.11-.175 2.638-.32 3.702C1.019 17.899 1.94 19 3.178 19h13.646c1.236 0 2.16-1.1 1.997-2.298-.145-1.064-.32-2.592-.32-3.702 0-1.337.253-3.268.398-4.257a2.02 2.02 0 0 0-.783-1.907zM3.085 8.436 10 3.25l6.915 5.186.001.001.002.003v.013C16.776 9.435 16.5 11.5 16.5 13c0 1.258.193 2.903.338 3.97v.013a.04.04 0 0 1-.014.017H14v-5a4 4 0 0 0-8 0v5H3.176q-.002 0-.006-.005l-.007-.012v-.012c.144-1.068.337-2.713.337-3.971 0-1.5-.275-3.565-.419-4.547l.001-.013zM8 17h4v-5a2 2 0 1 0-4 0z"/></svg>