<svg xmlns="http://www.w3.org/2000/svg" width="64" height="64" fill="none" viewBox="0 0 24 24"><g fill="#000"><path d="M11 1a1 1 0 1 1 2 0v2a1 1 0 1 1-2 0z"/><path fill-rule="evenodd" d="M18 12a6 6 0 1 1-12 0 6 6 0 0 1 12 0m-9.938 0a3.938 3.938 0 1 0 7.876 0 3.938 3.938 0 0 0-7.876 0" clip-rule="evenodd"/><path d="M20.485 3.515a1 1 0 0 0-1.414 0l-1.414 1.414a1 1 0 0 0 1.414 1.414l1.414-1.414a1 1 0 0 0 0-1.414M1 13a1 1 0 1 1 0-2h2a1 1 0 1 1 0 2zm2.515-9.485a1 1 0 0 0 0 1.414l1.414 1.414A1 1 0 0 0 6.343 4.93L4.93 3.515a1 1 0 0 0-1.414 0ZM11 21a1 1 0 1 1 2 0v2a1 1 0 1 1-2 0zm-4.657-3.343a1 1 0 0 0-1.414 0L3.515 19.07a1 1 0 1 0 1.414 1.414l1.414-1.414a1 1 0 0 0 0-1.414ZM21 13a1 1 0 1 1 0-2h2a1 1 0 1 1 0 2zm-3.343 4.657a1 1 0 0 0 0 1.414l1.414 1.414a1 1 0 0 0 1.414-1.414l-1.414-1.414a1 1 0 0 0-1.414 0"/></g></svg>