<svg xmlns="http://www.w3.org/2000/svg" width="800" height="800" fill="currentColor" stroke="#000" data-name="10 - Love" viewBox="0 -0.43 29.956 29.956"><path fill-rule="evenodd" d="M14.977 3.09a8.785 8.785 0 0 0-12.478-.911c-3.2 3.038-3.395 9.113-.2 15.189 2.131 4.325 7.576 8.69 12.14 11.581a1 1 0 0 0 1.07 0c4.567-2.893 10.017-7.262 12.15-11.6 3.188-6.063 2.99-12.133-.207-15.169a8.785 8.785 0 0 0-12.475.91Zm-.846 2.214a1 1 0 0 0 1.692 0 6.792 6.792 0 0 1 10.254-1.675 6.4 6.4 0 0 1 1.82 3.927 15.5 15.5 0 0 1-2.015 8.882c0 .008-.009.017-.013.025-1.912 3.892-6.731 7.756-10.892 10.453-4.161-2.7-8.98-6.561-10.892-10.453 0-.008-.008-.017-.013-.025a15.5 15.5 0 0 1-2.015-8.882 6.4 6.4 0 0 1 1.82-3.927 6.792 6.792 0 0 1 10.254 1.675Z" data-name="10 - Love"/></svg>