<svg xmlns="http://www.w3.org/2000/svg" xml:space="preserve" width="256" height="256" viewBox="0 0 64 64"><g transform="translate(-384 -96)"><path d="M394 105h49v6h-49z" style="fill:#3e4f59;fill-opacity:1;fill-rule:evenodd;stroke-width:2;stroke-linecap:round;stroke-linejoin:round;stroke-miterlimit:4.1"/><path d="M394 111h49v40h-49z" style="fill:#acbec2;fill-opacity:1;fill-rule:evenodd;stroke-width:2.00001;stroke-linecap:round;stroke-linejoin:round;stroke-miterlimit:4.1"/><path d="M394 111v40h29.77a28.484 41.393 35.6 0 0 18.625-40z" style="fill:#e8edee;fill-opacity:1;fill-rule:evenodd;stroke:none;stroke-width:2.00002;stroke-linecap:round;stroke-linejoin:round;stroke-miterlimit:4.1"/><path d="M396 104c-1.645 0-3 1.355-3 3v40a1 1 0 1 0 2 0v-40c0-.564.436-1 1-1h45c.564 0 1 .436 1 1v3h-42a1 1 0 0 0 0 2h42v37c0 .564-.436 1-1 1h-49a1 1 0 0 0 0 2h49c1.645 0 3-1.355 3-3v-42c0-1.645-1.355-3-3-3z" style="color:#000;fill:#000;fill-rule:evenodd;stroke-linecap:round;stroke-linejoin:round;stroke-miterlimit:4.1"/><path d="M439 107a1 1 0 1 0 0 2 1 1 0 0 0 0-2" style="color:#000;fill:#ed7161;fill-opacity:1;fill-rule:evenodd;stroke-linecap:round;stroke-linejoin:round;stroke-miterlimit:4.1;-inkscape-stroke:none"/><path d="M435 107a1 1 0 1 0 0 2 1 1 0 0 0 0-2" style="color:#000;fill:#ecba16;fill-opacity:1;fill-rule:evenodd;stroke-linecap:round;stroke-linejoin:round;stroke-miterlimit:4.1;-inkscape-stroke:none"/><path d="M431 107a1 1 0 1 0 0 2 1 1 0 0 0 0-2" style="color:#000;fill:#42b05c;fill-opacity:1;fill-rule:evenodd;stroke-linecap:round;stroke-linejoin:round;stroke-miterlimit:4.1;-inkscape-stroke:none"/><path d="M389 150a1 1 0 0 0-1 1 1 1 0 0 0 1 1 1 1 0 0 0 1-1 1 1 0 0 0-1-1m8-40a1 1 0 1 0 0 2 1 1 0 0 0 0-2" style="color:#000;fill:#000;fill-rule:evenodd;stroke-linecap:round;stroke-linejoin:round;stroke-miterlimit:4.1;-inkscape-stroke:none"/><rect width="29" height="22" x="404" y="120" rx="2" ry="2" style="fill:#0075d3;fill-opacity:1;fill-rule:evenodd;stroke:none;stroke-width:2;stroke-linecap:round;stroke-linejoin:round;stroke-miterlimit:4.1"/><path d="M406 120c-1.108 0-2 .892-2 2v18c0 1.108.892 2 2 2h19.584a19.317 16.375 0 0 0 4.637-10.633A19.317 16.375 0 0 0 424.803 120Z" style="fill:#0588e2;fill-opacity:1;fill-rule:evenodd;stroke:none;stroke-width:2;stroke-linecap:round;stroke-linejoin:round;stroke-miterlimit:4.1"/><path d="M404 120h29v6h-29z" style="fill:#fe73c5;fill-opacity:1;fill-rule:evenodd;stroke-width:2;stroke-linecap:round;stroke-linejoin:round;stroke-miterlimit:4.1"/><path d="M404 120v6h24.59a14 8.5 0 0 0 .11-1 14 8.5 0 0 0-2.68-5z" style="fill:#fe93d3;fill-opacity:1;fill-rule:evenodd;stroke-width:2;stroke-linecap:round;stroke-linejoin:round;stroke-miterlimit:4.1"/><path d="M404 130h29" style="color:#000;fill:#918383;fill-rule:evenodd;stroke-width:2;stroke-linecap:round;stroke-linejoin:round;stroke-miterlimit:4.1;-inkscape-stroke:none" transform="translate(0 -4)"/><path d="M406 123c-1.645 0-3 1.355-3 3v5.916a1 1 0 0 0 2 0V131h27v6a1 1 0 0 0 2 0v-11c0-1.645-1.355-3-3-3zm0 2h25c.571 0 1 .429 1 1v3h-27v-3c0-.571.429-1 1-1m-2 10a1 1 0 0 0-1 1v8c0 1.645 1.355 3 3 3h25c1.645 0 3-1.355 3-3v-3a1 1 0 0 0-2 0v3c0 .571-.429 1-1 1h-25c-.571 0-1-.429-1-1v-8a1 1 0 0 0-1-1" style="color:#000;fill:#000;fill-rule:evenodd;stroke-linecap:round;stroke-linejoin:round;stroke-miterlimit:4.1;-inkscape-stroke:none" transform="translate(0 -4)"/><path d="M409.936 129.002a1 1 0 0 0-.916.803l-1 5A1 1 0 0 0 409 136h3v2a1 1 0 0 0 2 0v-5a1 1 0 0 0-2 0v1h-1.781l.761-3.805a1 1 0 0 0-1.044-1.193" style="color:#000;fill:#000;fill-rule:evenodd;stroke-linecap:round;stroke-linejoin:round;stroke-miterlimit:4.1;-inkscape-stroke:none"/><path d="M419 130c1.108 0 2 .892 2 2v3c0 1.108-.892 2-2 2s-2-.892-2-2v-3c0-1.108.892-2 2-2" style="fill:#ffc343;fill-opacity:1;fill-rule:evenodd;stroke:none;stroke-width:2;stroke-linecap:round;stroke-linejoin:round;stroke-miterlimit:4.1"/><path d="M419 129c-1.645 0-3 1.355-3 3v3c0 1.645 1.355 3 3 3s3-1.355 3-3v-3a1 1 0 0 0-1-1 1 1 0 0 0-1 1v3c0 .571-.429 1-1 1s-1-.429-1-1v-3c0-.571.429-1 1-1a1 1 0 0 0 1-1 1 1 0 0 0-1-1m6.936.002a1 1 0 0 0-.916.803l-1 5A1 1 0 0 0 425 136h3v2a1 1 0 0 0 2 0v-5a1 1 0 0 0-2 0v1h-1.781l.761-3.805a1 1 0 0 0-1.044-1.193" style="color:#000;fill:#000;fill-rule:evenodd;stroke-linecap:round;stroke-linejoin:round;stroke-miterlimit:4.1;-inkscape-stroke:none"/></g></svg>