<svg xmlns="http://www.w3.org/2000/svg" width="800" height="800" fill="none" stroke="#000" viewBox="0 0 24 24"><path fill="#000" d="M4.522 7H7a1 1 0 1 1 0 2H3a2 2 0 0 1-2-2V3a1 1 0 1 1 2 0v2.675a11 11 0 0 1 19.96 5.38c.047.55-.412.997-.965.994s-.996-.454-1.055-1.003A8.992 8.992 0 0 0 4.58 6.922 1 1 0 0 1 4.522 7ZM21 18.325a11 11 0 0 1-19.96-5.38c-.047-.55.412-.997.965-.994s.996.454 1.055 1.003a8.992 8.992 0 0 0 16.36 4.124q.027-.04.058-.078H17a1 1 0 1 1 0-2h4a2 2 0 0 1 2 2v4a1 1 0 1 1-2 0z"/></svg>