<svg xmlns="http://www.w3.org/2000/svg" xml:space="preserve" width="64" height="64" fill="currentColor" viewBox="0 0 490 490"><path d="M327.08 180.984H192.677L161.05 309.958h133.984zm-146.5 113.662 24.12-98.35h102.791l-24.419 98.35z"/><path d="M60.517 490h72.241l32.763-133.386h102.492L235.639 490h72.211l32.763-133.386h117.625v-61.968H355.702l24.434-98.35h78.103v-61.968h-63.044L427.957 0h-72.615l-32.763 134.328H219.728L252.492 0h-72.256l-32.748 134.328H31.762v61.968h100.683l-24.12 98.35H31.762v61.968h61.519zM47.074 341.301v-31.343h73.273l31.627-128.975h-104.9V149.64H159.51l32.748-134.328h40.734L200.229 149.64h134.373l32.763-134.328h41.093L375.695 149.64h67.231v31.343h-74.753l-32.061 128.975h106.814v31.343H328.621l-32.763 133.386h-40.749l32.375-133.386H153.529l-32.763 133.386H80.047l32.763-133.386z"/></svg>